<svg width="34" height="33" viewBox="0 0 34 33" fill="none" xmlns="http://www.w3.org/2000/svg">
<g clip-path="url(#clip0_1_879)">
<path d="M31.9285 24.75C31.9285 25.297 31.7113 25.8216 31.3245 26.2084C30.9377 26.5952 30.4131 26.8125 29.8662 26.8125H5.11756C4.57059 26.8125 4.04601 26.5952 3.65924 26.2084C3.27247 25.8216 3.05518 25.297 3.05518 24.75V12.375C3.05518 11.828 3.27247 11.3034 3.65924 10.9166C4.04601 10.5298 4.57059 10.3125 5.11756 10.3125H7.53468C9.17476 10.3116 10.7474 9.65952 11.9069 8.49956L13.6187 6.79181C14.0044 6.406 14.5272 6.18871 15.0727 6.1875H19.9069C20.4538 6.18762 20.9783 6.40499 21.365 6.79181L23.0727 8.49956C23.6473 9.07441 24.3296 9.5304 25.0805 9.84147C25.8314 10.1525 26.6363 10.3126 27.449 10.3125H29.8662C30.4131 10.3125 30.9377 10.5298 31.3245 10.9166C31.7113 11.3034 31.9285 11.828 31.9285 12.375V24.75ZM5.11756 8.25C4.02361 8.25 2.97446 8.6846 2.20091 9.45818C1.42737 10.2318 0.992798 11.281 0.992798 12.375L0.992798 24.75C0.992798 25.844 1.42737 26.8932 2.20091 27.6668C2.97446 28.4404 4.02361 28.875 5.11756 28.875H29.8662C30.9601 28.875 32.0093 28.4404 32.7828 27.6668C33.5564 26.8932 33.9909 25.844 33.9909 24.75V12.375C33.9909 11.281 33.5564 10.2318 32.7828 9.45818C32.0093 8.6846 30.9601 8.25 29.8662 8.25H27.449C26.3552 8.24977 25.3062 7.81502 24.5328 7.04138L22.8252 5.33362C22.0518 4.55998 21.0028 4.12523 19.909 4.125H15.0747C13.9809 4.12523 12.9319 4.55998 12.1585 5.33362L10.4509 7.04138C9.67752 7.81502 8.62854 8.24977 7.53468 8.25H5.11756Z" fill="#464E5F"/>
<path d="M17.4921 22.6875C16.1247 22.6875 14.8132 22.1443 13.8463 21.1773C12.8794 20.2103 12.3361 18.8988 12.3361 17.5312C12.3361 16.1637 12.8794 14.8522 13.8463 13.8852C14.8132 12.9182 16.1247 12.375 17.4921 12.375C18.8595 12.375 20.171 12.9182 21.1379 13.8852C22.1048 14.8522 22.6481 16.1637 22.6481 17.5312C22.6481 18.8988 22.1048 20.2103 21.1379 21.1773C20.171 22.1443 18.8595 22.6875 17.4921 22.6875ZM17.4921 24.75C19.4065 24.75 21.2425 23.9895 22.5962 22.6357C23.9499 21.2819 24.7104 19.4458 24.7104 17.5312C24.7104 15.6167 23.9499 13.7806 22.5962 12.4268C21.2425 11.073 19.4065 10.3125 17.4921 10.3125C15.5777 10.3125 13.7417 11.073 12.388 12.4268C11.0343 13.7806 10.2738 15.6167 10.2738 17.5312C10.2738 19.4458 11.0343 21.2819 12.388 22.6357C13.7417 23.9895 15.5777 24.75 17.4921 24.75ZM7.18018 13.4062C7.18018 13.6798 7.07154 13.9421 6.87815 14.1355C6.68477 14.3289 6.42248 14.4375 6.14899 14.4375C5.8755 14.4375 5.61321 14.3289 5.41983 14.1355C5.22644 13.9421 5.1178 13.6798 5.1178 13.4062C5.1178 13.1327 5.22644 12.8704 5.41983 12.677C5.61321 12.4836 5.8755 12.375 6.14899 12.375C6.42248 12.375 6.68477 12.4836 6.87815 12.677C7.07154 12.8704 7.18018 13.1327 7.18018 13.4062Z" fill="#464E5F"/>
</g>
<defs>
<clipPath id="clip0_1_879">
<rect width="32.9981" height="33" fill="white" transform="translate(0.992798)"/>
</clipPath>
</defs>
</svg>
