<svg width="80" height="142" viewBox="0 0 80 142" fill="none" xmlns="http://www.w3.org/2000/svg">
<g clip-path="url(#clip0_309_438)">
<path d="M0 71C1.67806 80.1234 3.14433 89.2795 4.8224 98.4029C10.0847 106.044 15.5262 113.554 20.7884 121.195C28.4293 126.458 35.9399 131.899 43.5808 137.161C52.7042 138.839 61.8603 140.306 70.9837 141.984C80.1072 140.306 89.2632 138.839 98.3866 137.161C106.028 131.899 113.538 126.458 121.179 121.195C126.441 113.554 131.883 106.044 137.145 98.4029C138.823 89.2795 140.289 80.1234 141.967 71C140.289 61.8765 138.823 52.7205 137.145 43.5971C131.883 35.9562 126.441 28.4456 121.179 20.8047C113.538 15.5425 106.028 10.101 98.3866 4.83869C89.2795 3.14433 80.1234 1.67806 71 0C61.8765 1.67806 52.7205 3.14433 43.5971 4.8224C35.9562 10.0847 28.4456 15.5262 20.8047 20.7884C15.5425 28.4293 10.101 35.9399 4.83869 43.5808C3.14433 52.7042 1.67806 61.8765 0 71ZM11.5184 95.6333C10.0195 87.4385 8.68357 79.1948 7.20101 71C8.68357 62.7889 10.0195 54.5615 11.5184 46.3667C16.2593 39.5078 21.1306 32.7467 25.8878 25.8878C32.7467 21.1469 39.5078 16.2593 46.3667 11.5184C54.5615 10.0195 62.8052 8.68357 71 7.20101C79.2111 8.68357 87.4385 10.0195 95.6333 11.5184C102.492 16.2593 109.253 21.1306 116.112 25.8878C120.853 32.7467 125.741 39.5078 130.482 46.3667C131.98 54.5615 133.316 62.8052 134.799 71C133.3 79.1948 131.964 87.4385 130.465 95.6333C125.724 102.492 120.853 109.253 116.096 116.112C109.237 120.853 102.476 125.741 95.617 130.482C87.4222 131.98 79.1785 133.316 70.9837 134.799C62.7726 133.316 54.5452 131.98 46.3504 130.482C39.4915 125.741 32.7304 120.869 25.8715 116.112C21.1469 109.253 16.2593 102.492 11.5184 95.6333Z" fill="white" fill-opacity="0.05"/>
<path d="M63.0654 70.9999C63.2121 72.0263 63.3587 73.069 63.5216 74.0954C64.1407 74.9263 64.7598 75.7735 65.3952 76.6043C66.2261 77.2234 67.0569 77.8588 67.9041 78.4779C68.9305 78.6245 69.9732 78.7875 70.9996 78.9341C72.026 78.7875 73.0686 78.6408 74.095 78.4779C74.9259 77.8588 75.7731 77.2397 76.604 76.6043C77.2231 75.7735 77.8585 74.9426 78.4775 74.0954C78.6242 73.069 78.7871 72.0263 78.9337 70.9999C78.7871 69.9736 78.6405 68.9309 78.4775 67.9045C77.8585 67.0736 77.2394 66.2264 76.604 65.3955C75.7731 64.7764 74.9422 64.1411 74.095 63.522C73.0686 63.3753 72.026 63.2124 70.9996 63.0658C69.9732 63.2124 68.9305 63.3591 67.9041 63.522C67.0732 64.1411 66.2261 64.7602 65.3952 65.3955C64.7761 66.2264 64.1407 67.0573 63.5216 67.9045C63.375 68.9309 63.2121 69.9573 63.0654 70.9999ZM69.6636 71.5539C69.6311 71.3747 69.6148 71.1792 69.5822 70.9999C69.6148 70.8207 69.6311 70.6252 69.6636 70.446C69.7777 70.2994 69.8917 70.1528 70.0058 69.9898C70.1524 69.8758 70.299 69.7618 70.4619 69.664C70.6412 69.6314 70.8367 69.6151 71.0159 69.5825C71.1951 69.6151 71.3906 69.6314 71.5698 69.664C71.7164 69.778 71.863 69.8921 72.026 69.9898C72.14 70.1365 72.2541 70.2831 72.3518 70.446C72.3844 70.6252 72.4007 70.8207 72.4333 70.9999C72.4007 71.1792 72.3844 71.3747 72.3518 71.5539C72.2378 71.7005 72.1237 71.8471 72.026 72.01C71.8793 72.1241 71.7327 72.2381 71.5698 72.3522C71.3906 72.3848 71.1951 72.401 71.0159 72.4336C70.8367 72.401 70.6412 72.3848 70.4619 72.3522C70.3153 72.2381 70.1687 72.1241 70.0058 72.01C69.8754 71.8471 69.7777 71.7005 69.6636 71.5539Z" fill="white" fill-opacity="0.05"/>
<path d="M17.4326 70.9999C18.6708 77.8914 19.8112 84.7991 21.0494 91.6906C25.0572 97.4416 29.1302 103.128 33.1217 108.879C38.8727 112.87 44.5586 116.959 50.3096 120.951C57.2011 122.189 64.1088 123.313 71.0003 124.568C77.8918 123.329 84.7995 122.189 91.691 120.951C97.442 116.943 103.128 112.87 108.879 108.879C112.87 103.128 116.96 97.4416 120.951 91.6906C122.189 84.7991 123.314 77.8914 124.568 70.9999C123.33 64.1085 122.189 57.2007 120.951 50.3093C116.943 44.5582 112.87 38.8724 108.879 33.1213C103.128 29.1298 97.442 25.0406 91.691 21.049C84.7995 19.8109 77.8918 18.6867 71.0003 17.4323C64.1088 18.6704 57.2011 19.8109 50.3096 21.049C44.5586 25.0568 38.8727 29.1298 33.1217 33.1213C29.1302 38.8724 25.0409 44.5582 21.0494 50.3093C19.8112 57.2007 18.6871 64.1085 17.4326 70.9999ZM54.9202 77.647C54.5781 75.4313 54.2523 73.2156 53.9427 70.9836C54.2523 68.7679 54.5781 66.536 54.9202 64.3203C56.2399 62.5119 57.5758 60.7035 58.928 58.9114C60.7201 57.5591 62.5122 56.2232 64.3369 54.9036C66.5526 54.5614 68.7683 54.2356 71.0003 53.926C73.216 54.2356 75.448 54.5614 77.6637 54.9036C79.4721 56.2232 81.2805 57.5591 83.0726 58.9114C84.4248 60.7035 85.7607 62.4956 87.0804 64.3203C87.4225 66.536 87.7483 68.7517 88.0579 70.9836C87.7483 73.1993 87.4225 75.4313 87.0804 77.647C85.7607 79.4554 84.4248 81.2638 83.0726 83.0559C81.2805 84.4081 79.4884 85.7441 77.6637 87.0637C75.448 87.4058 73.2323 87.7317 71.0003 88.0412C68.7846 87.7317 66.5526 87.4058 64.3369 87.0637C62.5285 85.7441 60.7201 84.4081 58.928 83.0559C57.5921 81.2638 56.2561 79.4554 54.9202 77.647ZM38.4003 72.3522C38.3677 72.1241 38.384 72.1404 38.4166 72.4173C38.4654 72.7595 38.4654 72.7269 38.4003 72.3196C38.4003 72.3359 38.4003 72.3359 38.4003 72.3522ZM48.9085 94.9979C48.7293 94.8675 48.7456 94.8675 48.9737 95.0467C49.2506 95.2585 49.2181 95.2422 48.8922 94.9816C48.8922 94.9816 48.9085 94.9979 48.9085 94.9979ZM72.3525 103.584C72.1244 103.616 72.1407 103.6 72.4177 103.567C72.7598 103.519 72.7272 103.519 72.3199 103.584C72.3362 103.584 72.3362 103.584 72.3525 103.584ZM94.9982 93.0917C94.8679 93.2709 94.8679 93.2546 95.0471 93.0265C95.2589 92.7496 95.2426 92.7822 94.9819 93.108C94.9819 93.108 94.9982 93.0917 94.9982 93.0917ZM103.584 69.6477C103.617 69.8758 103.617 69.8595 103.568 69.5825C103.519 69.2404 103.519 69.273 103.584 69.6803C103.584 69.664 103.584 69.6477 103.584 69.6477ZM93.0921 47.002C93.2713 47.1323 93.255 47.1323 93.0269 46.9531C92.7499 46.7413 92.7825 46.7576 93.1084 47.0183C93.1084 47.002 93.0921 47.002 93.0921 47.002ZM69.6481 38.3999C69.8762 38.3673 69.8599 38.3836 69.5666 38.4162C69.2245 38.4651 69.2571 38.4651 69.6644 38.3999C69.6644 38.3999 69.6481 38.3999 69.6481 38.3999ZM47.0024 48.9081C47.1327 48.7289 47.1327 48.7452 46.9535 48.9733C46.7417 49.2503 46.758 49.2177 47.0187 48.8919C47.0024 48.8919 47.0024 48.9081 47.0024 48.9081ZM38.4003 69.6803C38.4491 69.273 38.4654 69.2241 38.4166 69.5825C38.384 69.8595 38.384 69.8758 38.4003 69.6477C38.4003 69.6477 38.4003 69.664 38.4003 69.6803ZM47.0187 93.108C46.758 92.7822 46.7417 92.7496 46.9535 93.0265C47.1327 93.2546 47.1327 93.2709 47.0024 93.0917C47.0024 93.0917 47.0024 93.108 47.0187 93.108ZM69.6807 103.584C69.2734 103.535 69.2245 103.519 69.5829 103.567C69.8599 103.6 69.8762 103.6 69.6644 103.584C69.6481 103.584 69.6644 103.584 69.6807 103.584ZM93.1084 94.9816C92.7825 95.2422 92.7499 95.2585 93.0269 95.0467C93.255 94.8675 93.2713 94.8675 93.0921 94.9979C93.0921 94.9979 93.1084 94.9816 93.1084 94.9816ZM103.584 72.3196C103.535 72.7269 103.519 72.7757 103.568 72.4173C103.6 72.1404 103.6 72.1241 103.584 72.3522C103.584 72.3359 103.584 72.3359 103.584 72.3196ZM94.9819 48.8919C95.2426 49.2177 95.2589 49.2503 95.0471 48.9733C94.8679 48.7452 94.8679 48.7289 94.9982 48.9081C94.9982 48.9081 94.9819 48.8919 94.9819 48.8919ZM72.3199 38.3999C72.7272 38.4488 72.7761 38.4651 72.4177 38.4162C72.1407 38.3836 72.1244 38.3836 72.3525 38.3999C72.3362 38.3999 72.3362 38.3999 72.3199 38.3999ZM48.8922 47.0183C49.2181 46.7576 49.2506 46.7413 48.9737 46.9531C48.7456 47.1323 48.7293 47.1323 48.9085 47.002C48.9085 47.002 48.8922 47.002 48.8922 47.0183ZM38.5632 70.9999C38.4817 71.2117 38.4328 71.4398 38.4003 71.6842C38.3514 71.9286 38.3677 72.1729 38.4166 72.4173C38.4166 72.6128 38.4654 72.792 38.5469 72.9712C38.7424 73.3948 38.8727 73.7207 39.2149 74.0465C39.9806 74.7959 40.9744 74.8611 41.9845 74.7796C44.5097 74.5353 46.8883 73.6229 49.2506 72.7757C49.5276 74.7633 49.8209 76.751 50.1141 78.7386C44.0372 79.6672 34.8649 80.4329 33.9852 72.9224C33.9037 72.2381 33.9037 71.6027 33.9852 71.0162C33.9037 70.4297 33.9037 69.7943 33.9852 69.1101C34.8649 61.5995 44.0372 62.3652 50.1141 63.2939C49.8046 65.2815 49.5276 67.2691 49.2506 69.2567C46.872 68.4095 44.5097 67.4972 41.9845 67.2528C40.9744 67.155 39.9806 67.2365 39.2149 67.9859C38.8727 68.3118 38.7424 68.6376 38.5469 69.0612C38.4654 69.2404 38.4166 69.4196 38.4166 69.6151C38.3677 69.8595 38.3514 70.1039 38.4003 70.3483C38.4328 70.56 38.4817 70.7881 38.5632 70.9999ZM48.0613 48.061C47.8495 48.1587 47.654 48.2728 47.4585 48.4357C47.2467 48.566 47.0838 48.7452 46.9535 48.957C46.8232 49.1037 46.7091 49.2503 46.6602 49.4295C46.5136 49.8694 46.367 50.1789 46.367 50.6677C46.3833 51.7266 47.035 52.4924 47.817 53.144C49.772 54.7569 52.1017 55.7833 54.3663 56.8749C53.1607 58.4715 51.9551 60.0844 50.7658 61.6973C45.8131 58.0642 38.7913 52.1176 43.467 46.1711C43.8906 45.6335 44.3468 45.1936 44.8193 44.8352C45.1777 44.3627 45.6176 43.9065 46.1552 43.483C52.0854 38.7909 58.032 45.829 61.6813 50.7817C60.0684 51.971 58.4556 53.1603 56.859 54.3822C55.7837 52.1014 54.7573 49.7879 53.1281 47.8329C52.4764 47.0509 51.7107 46.3992 50.6517 46.3829C50.1793 46.3829 49.8534 46.5132 49.4136 46.6762C49.2344 46.7413 49.0714 46.8391 48.9411 46.9694C48.7293 47.0998 48.5664 47.2627 48.4198 47.4745C48.2731 47.6537 48.1591 47.8492 48.0613 48.061ZM71.0003 38.5628C70.7885 38.4814 70.5604 38.4325 70.316 38.3999C70.0717 38.351 69.8273 38.3673 69.5829 38.4162C69.3874 38.4162 69.2082 38.4651 69.029 38.5465C68.6054 38.742 68.2796 38.8724 67.9537 39.2145C67.2043 39.9802 67.1391 40.974 67.2206 41.9841C67.465 44.5093 68.3773 46.888 69.2245 49.2503C67.2369 49.5272 65.2493 49.8205 63.2617 50.1138C62.333 44.0369 61.5673 34.8646 69.0779 33.9848C69.7621 33.9033 70.3975 33.9033 70.984 33.9848C71.5705 33.9033 72.2059 33.9033 72.8902 33.9848C80.4007 34.8646 79.635 44.0369 78.7064 50.1138C76.7187 49.8042 74.7311 49.5272 72.7435 49.2503C73.5907 46.8717 74.5031 44.5093 74.7474 41.9841C74.8452 40.974 74.7637 39.9802 74.0143 39.2145C73.6885 38.8724 73.3626 38.742 72.939 38.5465C72.7598 38.4651 72.5806 38.4162 72.3851 38.4162C72.1407 38.3673 71.8963 38.351 71.652 38.3999C71.4402 38.4325 71.2121 38.4814 71.0003 38.5628ZM93.9393 48.061C93.8415 47.8492 93.7275 47.6537 93.5645 47.4582C93.4342 47.2464 93.255 47.0835 93.0432 46.9531C92.8966 46.8228 92.7499 46.7087 92.5707 46.6599C92.1309 46.5132 91.8213 46.3666 91.3326 46.3666C90.2736 46.3829 89.5079 47.0346 88.8562 47.8166C87.2433 49.7716 86.2169 52.1014 85.1254 54.3659C83.5287 53.1603 81.9159 51.9547 80.303 50.7654C83.936 45.8127 89.8826 38.7909 95.8291 43.4667C96.3667 43.8903 96.8066 44.3464 97.165 44.8189C97.6375 45.1773 98.0937 45.6172 98.5173 46.1548C103.209 52.0851 96.1712 58.0316 91.2185 61.681C90.0292 60.0681 88.8236 58.4552 87.618 56.8586C89.8989 55.7833 92.2123 54.7569 94.1673 53.1277C94.9493 52.4761 95.601 51.7266 95.6173 50.6514C95.6173 50.1789 95.487 49.8531 95.3241 49.4132C95.2589 49.234 95.1611 49.0711 95.0308 48.9407C94.9005 48.7289 94.7213 48.566 94.5258 48.4194C94.3303 48.2728 94.151 48.1587 93.9393 48.061ZM103.437 70.9999C103.519 70.7881 103.568 70.56 103.6 70.3157C103.649 70.0713 103.633 69.8269 103.584 69.5825C103.584 69.387 103.535 69.2078 103.454 69.0286C103.258 68.605 103.128 68.2792 102.786 67.9533C102.02 67.2039 101.026 67.1388 100.016 67.2202C97.4909 67.4646 95.1123 68.3769 92.7499 69.2241C92.473 67.2365 92.1797 65.2489 91.8865 63.2613C97.9633 62.3327 107.136 61.5669 108.015 69.0775C108.097 69.7617 108.097 70.3971 108.015 70.9836C108.097 71.5701 108.097 72.2055 108.015 72.8898C107.136 80.4003 97.9633 79.6346 91.8865 78.706C92.196 76.7184 92.473 74.7308 92.7499 72.7432C95.1286 73.5903 97.4909 74.5027 100.016 74.7471C101.026 74.8448 102.02 74.7634 102.786 74.0139C103.128 73.6881 103.258 73.3623 103.454 72.9387C103.535 72.7595 103.584 72.5802 103.584 72.3847C103.633 72.1404 103.649 71.896 103.6 71.6516C103.568 71.4398 103.519 71.2117 103.437 70.9999ZM93.9393 93.9389C94.151 93.8411 94.3465 93.7271 94.5421 93.5642C94.7538 93.4338 94.9168 93.2546 95.0471 93.0428C95.1774 92.8962 95.2915 92.7496 95.3404 92.5704C95.487 92.1305 95.6336 91.8209 95.6336 91.3322C95.6173 90.2732 94.9656 89.5075 94.1836 88.8558C92.2286 87.2429 89.8989 86.2165 87.6343 85.125C88.8399 83.5284 90.0455 81.9155 91.2348 80.3026C96.1875 83.9357 103.209 89.8822 98.5336 95.8287C98.11 96.3664 97.6538 96.8063 97.1813 97.1647C96.8229 97.6371 96.383 98.0933 95.8454 98.5169C89.9152 103.209 83.9686 96.1709 80.3192 91.2181C81.9321 90.0288 83.545 88.8395 85.1416 87.6176C86.2169 89.8985 87.2433 92.2119 88.8725 94.167C89.5242 94.949 90.2899 95.6007 91.3488 95.6169C91.8213 95.6169 92.1472 95.4866 92.587 95.3237C92.7662 95.2585 92.9292 95.1608 93.0595 95.0304C93.2713 94.9001 93.4342 94.7209 93.5808 94.5254C93.7112 94.3299 93.8415 94.1507 93.9393 93.9389ZM71.0003 103.437C71.2121 103.519 71.4402 103.567 71.6846 103.6C71.9289 103.649 72.1733 103.633 72.4177 103.584C72.6132 103.584 72.7924 103.535 72.9716 103.453C73.3952 103.258 73.721 103.128 74.0469 102.785C74.7963 102.02 74.8615 101.026 74.78 100.016C74.5356 97.4905 73.6233 95.1119 72.7761 92.7496C74.7637 92.4726 76.7513 92.1794 78.7389 91.8861C79.6676 97.963 80.4333 107.135 72.9227 108.015C72.2385 108.097 71.6031 108.097 71.0166 108.015C70.4301 108.097 69.7947 108.097 69.1104 108.015C61.5999 107.135 62.3656 97.963 63.2942 91.8861C65.2818 92.1957 67.2695 92.4726 69.2571 92.7496C68.4099 95.1282 67.4975 97.4905 67.2532 100.016C67.1554 101.026 67.2369 102.02 67.9863 102.785C68.3121 103.128 68.638 103.258 69.0616 103.453C69.2408 103.535 69.42 103.584 69.6155 103.584C69.8599 103.633 70.1042 103.649 70.3486 103.6C70.5604 103.567 70.7885 103.519 71.0003 103.437ZM48.0613 93.9389C48.1591 94.1507 48.2731 94.3462 48.4361 94.5417C48.5664 94.7535 48.7456 94.9164 48.9574 95.0467C49.104 95.1771 49.2506 95.2911 49.4299 95.34C49.8697 95.4866 50.1793 95.6332 50.668 95.6332C51.727 95.617 52.4927 94.9653 53.1444 94.1833C54.7573 92.2282 55.7837 89.8985 56.8752 87.6339C58.4718 88.8395 60.0847 90.0451 61.6976 91.2344C58.0645 96.1872 52.118 103.209 46.1715 98.5332C45.6338 98.1096 45.194 97.6534 44.8355 97.181C44.3631 96.8226 43.9069 96.3827 43.4833 95.845C38.7913 89.9148 45.8294 83.9683 50.7821 80.3189C51.9714 81.9318 53.177 83.5447 54.3826 85.1413C52.1017 86.2165 49.7883 87.2429 47.8333 88.8721C47.0512 89.5238 46.3996 90.2895 46.3833 91.3485C46.3833 91.8209 46.5136 92.1468 46.6765 92.5867C46.7417 92.7659 46.8395 92.9288 46.9698 93.0591C47.1001 93.2709 47.2793 93.4338 47.4748 93.5805C47.654 93.7108 47.8495 93.8411 48.0613 93.9389ZM27.9735 70.9999C27.8594 71.9774 27.892 73.0364 28.0712 74.1931C29.2279 81.1986 35.2722 83.0722 41.6586 83.1537C37.1947 87.7317 34.2458 93.3198 38.384 99.1034C39.0682 100.048 39.8014 100.814 40.5671 101.433C41.1699 102.199 41.9519 102.932 42.8968 103.616C48.6804 107.754 54.2685 104.806 58.8466 100.342C58.928 106.728 60.8016 112.772 67.8071 113.929C68.9638 114.125 70.0228 114.141 71.0003 114.027C71.9778 114.141 73.0368 114.108 74.1935 113.929C81.199 112.772 83.0726 106.728 83.154 100.342C87.7321 104.806 93.3202 107.754 99.1038 103.616C100.049 102.932 100.814 102.199 101.434 101.433C102.199 100.83 102.932 100.048 103.617 99.1034C107.755 93.3198 104.806 87.7317 100.342 83.1537C106.728 83.0722 112.773 81.1986 113.929 74.1931C114.125 73.0364 114.141 71.9774 114.027 70.9999C114.141 70.0224 114.109 68.9634 113.929 67.8067C112.773 60.8012 106.728 58.9276 100.342 58.8462C104.806 54.2682 107.755 48.6801 103.617 42.8964C102.932 41.9515 102.199 41.1858 101.434 40.5667C100.831 39.801 100.049 39.0679 99.1038 38.3836C93.3202 34.2455 87.7321 37.1943 83.154 41.6583C83.0726 35.2719 81.199 29.2276 74.1935 28.0708C73.0368 27.8753 71.9778 27.8591 71.0003 27.9731C70.0228 27.8591 68.9638 27.8916 67.8071 28.0708C60.8016 29.2276 58.928 35.2719 58.8466 41.6583C54.2685 37.1943 48.6804 34.2455 42.8968 38.3836C41.9519 39.0679 41.1862 39.801 40.5671 40.5667C39.8014 41.1695 39.0682 41.9515 38.384 42.8964C34.2458 48.6801 37.1947 54.2682 41.6586 58.8462C35.2722 58.9276 29.2279 60.8012 28.0712 67.8067C27.892 68.9634 27.8594 70.0224 27.9735 70.9999ZM25.2364 89.9474C24.1123 83.6424 23.0696 77.3049 21.9455 70.9999C23.0696 64.6787 24.1123 58.3574 25.2364 52.0525C28.9021 46.7902 32.6329 41.5768 36.2986 36.3145C41.5609 32.6489 46.7743 28.918 52.0366 25.2524C58.3415 24.1282 64.679 23.0855 70.984 21.9614C77.3053 23.0855 83.6265 24.1282 89.9315 25.2524C95.1937 28.918 100.407 32.6489 105.669 36.3145C109.335 41.5768 113.066 46.7902 116.732 52.0525C117.856 58.3574 118.898 64.695 120.023 70.9999C118.898 77.3049 117.856 83.6424 116.732 89.9474C113.066 95.2097 109.335 100.423 105.669 105.685C100.407 109.351 95.1937 113.082 89.9315 116.748C83.6265 117.872 77.289 118.914 70.984 120.038C64.6628 118.914 58.3415 117.872 52.0366 116.748C46.7743 113.082 41.5609 109.351 36.2986 105.685C32.6492 100.423 28.9021 95.2097 25.2364 89.9474Z" fill="white" fill-opacity="0.05"/>
</g>
<defs>
<clipPath id="clip0_309_438">
<rect width="142" height="142" fill="white"/>
</clipPath>
</defs>
</svg>
